<mxfile host="app.diagrams.net" modified="2023-05-02T23:35:31.735Z" agent="Mozilla/5.0 (Macintosh; Intel Mac OS X 10_15_7) AppleWebKit/537.36 (KHTML, like Gecko) Chrome/112.0.0.0 Safari/537.36" etag="hMj0BPxrx66DA3RBAXaZ" version="21.2.4" type="github">
  <diagram name="Page-1" id="mnaJsa2x3B4fH1mONCys">
    <mxGraphModel dx="707" dy="456" grid="1" gridSize="10" guides="1" tooltips="1" connect="1" arrows="1" fold="1" page="1" pageScale="1" pageWidth="850" pageHeight="1100" math="0" shadow="0">
      <root>
        <mxCell id="0" />
        <mxCell id="1" parent="0" />
        <mxCell id="p3iITfVUGrdbIYIQfsVV-1" value="CourseID" style="whiteSpace=wrap;html=1;align=center;fontStyle=4" vertex="1" parent="1">
          <mxGeometry x="90" y="110" width="100" height="40" as="geometry" />
        </mxCell>
        <mxCell id="p3iITfVUGrdbIYIQfsVV-2" value="&lt;span style=&quot;background-color: initial;&quot;&gt;Description&lt;br&gt;&lt;/span&gt;" style="whiteSpace=wrap;html=1;align=center;" vertex="1" parent="1">
          <mxGeometry x="190" y="110" width="100" height="40" as="geometry" />
        </mxCell>
        <mxCell id="p3iITfVUGrdbIYIQfsVV-3" value="&lt;span style=&quot;background-color: initial;&quot;&gt;Credits&amp;nbsp;&lt;br&gt;&lt;/span&gt;" style="whiteSpace=wrap;html=1;align=center;" vertex="1" parent="1">
          <mxGeometry x="290" y="110" width="100" height="40" as="geometry" />
        </mxCell>
        <mxCell id="p3iITfVUGrdbIYIQfsVV-7" style="edgeStyle=orthogonalEdgeStyle;rounded=0;orthogonalLoop=1;jettySize=auto;html=1;entryX=0;entryY=0.5;entryDx=0;entryDy=0;" edge="1" parent="1" source="p3iITfVUGrdbIYIQfsVV-4" target="p3iITfVUGrdbIYIQfsVV-1">
          <mxGeometry relative="1" as="geometry">
            <Array as="points">
              <mxPoint x="70" y="210" />
              <mxPoint x="70" y="130" />
            </Array>
          </mxGeometry>
        </mxCell>
        <mxCell id="p3iITfVUGrdbIYIQfsVV-4" value="CourseID" style="whiteSpace=wrap;html=1;align=center;fontStyle=4" vertex="1" parent="1">
          <mxGeometry x="90" y="190" width="100" height="40" as="geometry" />
        </mxCell>
        <mxCell id="p3iITfVUGrdbIYIQfsVV-5" value="&lt;span style=&quot;background-color: initial;&quot;&gt;&lt;span style=&quot;font-weight: normal;&quot;&gt;&lt;u&gt;Prerequisite&lt;/u&gt;&lt;/span&gt;&lt;br&gt;&lt;/span&gt;" style="whiteSpace=wrap;html=1;align=center;fontStyle=1" vertex="1" parent="1">
          <mxGeometry x="190" y="190" width="100" height="40" as="geometry" />
        </mxCell>
        <mxCell id="p3iITfVUGrdbIYIQfsVV-6" value="" style="endArrow=none;dashed=1;html=1;rounded=0;" edge="1" parent="1">
          <mxGeometry width="50" height="50" relative="1" as="geometry">
            <mxPoint x="105" y="220" as="sourcePoint" />
            <mxPoint x="175" y="220" as="targetPoint" />
          </mxGeometry>
        </mxCell>
        <mxCell id="p3iITfVUGrdbIYIQfsVV-8" value="COURSE" style="text;strokeColor=none;fillColor=none;spacingLeft=4;spacingRight=4;overflow=hidden;rotatable=0;points=[[0,0.5],[1,0.5]];portConstraint=eastwest;fontSize=12;whiteSpace=wrap;html=1;" vertex="1" parent="1">
          <mxGeometry x="90" y="90" width="100" height="30" as="geometry" />
        </mxCell>
        <mxCell id="p3iITfVUGrdbIYIQfsVV-9" value="PREREQUISITE" style="text;strokeColor=none;fillColor=none;spacingLeft=4;spacingRight=4;overflow=hidden;rotatable=0;points=[[0,0.5],[1,0.5]];portConstraint=eastwest;fontSize=12;whiteSpace=wrap;html=1;" vertex="1" parent="1">
          <mxGeometry x="90" y="170" width="100" height="30" as="geometry" />
        </mxCell>
        <mxCell id="p3iITfVUGrdbIYIQfsVV-10" value="- Question 1 -" style="text;strokeColor=none;fillColor=none;spacingLeft=4;spacingRight=4;overflow=hidden;rotatable=0;points=[[0,0.5],[1,0.5]];portConstraint=eastwest;fontSize=18;whiteSpace=wrap;html=1;fontColor=#a3a3a3;fontStyle=1" vertex="1" parent="1">
          <mxGeometry x="80" y="40" width="160" height="30" as="geometry" />
        </mxCell>
        <mxCell id="p3iITfVUGrdbIYIQfsVV-11" value="- Question 2 -" style="text;strokeColor=none;fillColor=none;spacingLeft=4;spacingRight=4;overflow=hidden;rotatable=0;points=[[0,0.5],[1,0.5]];portConstraint=eastwest;fontSize=18;whiteSpace=wrap;html=1;fontColor=#a3a3a3;fontStyle=1" vertex="1" parent="1">
          <mxGeometry x="80" y="270" width="160" height="30" as="geometry" />
        </mxCell>
      </root>
    </mxGraphModel>
  </diagram>
</mxfile>
